<svg id="Layer_1" data-name="Layer 1" xmlns="http://www.w3.org/2000/svg" viewBox="0 0 507.2 646.14"><path d="M490,377.68A188.49,188.49,0,0,1,507.2,456.5c0,104.57-85.08,189.64-189.64,189.64h-261V64H0V0H120.54V582.14h197A125.72,125.72,0,0,0,442.32,441.57,188.89,188.89,0,0,1,317.56,488.5H142.38v-64H317.56a125.46,125.46,0,0,0,97.77-46.82,125.46,125.46,0,0,0-97.77-46.82H142.38v-64H317.56a188.89,188.89,0,0,1,124.76,46.93A125.72,125.72,0,0,0,317.56,173.22H142.38v-64H317.56c104.56,0,189.64,85.07,189.64,189.64A188.49,188.49,0,0,1,490,377.68Z" fill="#fff"/></svg>