<svg id="Layer_1" data-name="Layer 1"  xmlns="http://www.w3.org/2000/svg" viewBox="0 0 470.61 600.36"><path d="M434.08,0H261.17C207.43,0,155.82,13.14,111.93,38,43.11,76.86,1.6,140.34.9,207.82a4.55,4.55,0,0,1,0,.52c-3.63,29.94,4.23,62.09,23.4,95.62C8.74,331.25.88,360.4.88,390.71c0,68.19,41.53,132.34,111,171.61,43.9,24.86,95.51,38,149.25,38H434.08c1,0,2,0,3-.11h.14c18.69-1.26,33.41-13.93,33.41-29.3V29.41C470.61,13.19,454.22,0,434.08,0ZM399.73,523.46c-45-23-106.56-58.49-163.36-99C221.59,414,207.51,403.36,194.53,393a29.94,29.94,0,0,1-1,6,31.39,31.39,0,0,1-2.27,6.06c-5.8,11.83-18.66,20.71-34,23.64a58.55,58.55,0,0,1-11.08,1.05h-1c-1.89,0-3.74-.15-5.56-.36l1.66,1.35c58.13,47,122,86.4,167.94,112.48h-48c-104.43,0-189.39-68.42-189.39-152.52a124.08,124.08,0,0,1,1.92-21.77q10.58,11.26,22.47,22.54L97.72,393c-.06-.74-.08-1.49-.08-2.24s0-1.44.07-2.34a31.84,31.84,0,0,1,2.24-9.61c4.8-12.07,16.76-21.67,32-25.42a56.79,56.79,0,0,1,7.63-1.36,55.66,55.66,0,0,1,6.56-.35h1a401.11,401.11,0,0,1-42.26-47c35.5-41.77,93.37-66.52,156.34-66.52H399.73Zm0-342.4H261.17c-71.35,0-138.35,23.18-187.31,64.21a84.36,84.36,0,0,1-2.3-32.53l.2-2.56,0-.57c0-84.1,85-152.52,189.39-152.52H399.73Z" fill="#231f20"/><path d="M437.06,600.21a20.23,20.23,0,0,1-2.6.15c-.43,0-1,0-1.82,0h1.44C435.09,600.32,436.08,600.29,437.06,600.21Z" fill="#231f20"/><path d="M184.73,390.71a24.4,24.4,0,0,1-.9,6.61c-3.73,14.16-19.6,24.49-37.71,24.49h-.78c-20.86-.35-37.82-14.3-37.82-31.09,0-.54,0-1.15,0-1.87,1.07-14.76,15.07-26.95,33.31-29a47.38,47.38,0,0,1,5.24-.28C167.41,359.58,184.73,373.55,184.73,390.71Z" fill="#231f20"/></svg>